# xmcd
#
# Track frame offsets:
#	150
#	20850
#	40022
#	69837
#
# Disc length: 1996 seconds
#
# Revision: 0
# Processed by: cddbd v1.5.2PL0 Copyright (c) Steve Scherf et al.
# Submitted via: EasyCDDAExtractor 2011.0.0.0
#
DISCID=2b07ca04
DTITLE=Jay-Z - Girls, Girls, Girls
DYEAR=2001
DGENRE=Hip-Hop
TTITLE0=Girls, Girls, Girls (LP Version)
TTITLE1=Girls, Girls, Girls (Part 2)
TTITLE2=Big Pimpin' feat. UGK (Radio Edit)
TTITLE3=Girls, Girls, Girls (Video)
EXTD=
EXTT0=
EXTT1=
EXTT2=
EXTT3=
PLAYORDER=
